<svg id="Layer_1" enable-background="new 0 0 128 128" height="512" viewBox="0 0 128 128" width="512" xmlns="http://www.w3.org/2000/svg"><path d="m75.944 66.359c6.095-2.973 10.667-8.591 12.226-15.35.286.081.575.135.866.135 2.379 0 4.243-2.45 4.243-5.578 0-1.616-.501-3.048-1.311-4.058v-11.655c0-12.119-9.824-21.943-21.943-21.943h-8.051c-12.119 0-21.943 9.824-21.943 21.943v11.655c-.81 1.01-1.31 2.442-1.31 4.058 0 3.128 1.863 5.578 4.242 5.578.292 0 .581-.054.867-.135 1.559 6.758 6.132 12.376 12.226 15.35-14.3 1.982-24.917 14.076-24.917 28.682v6.726 9.563c0 .208.011.414.031.617.31 3.046 2.89 5.431 6.017 5.431h6.712c.282.197.597.353.941.458l19.481 5.944c.675.206 1.368.31 2.063.31s1.388-.104 2.063-.31l19.48-5.943c.345-.105.661-.262.943-.459h5.943c3.127 0 5.707-2.385 6.018-5.431.021-.203.031-.409.031-.617v-9.563-6.726c-.001-14.606-10.617-26.7-24.918-28.682z" fill="#e6e7e8"/><path d="m85.037 36.989c-.455 0-.887.135-1.28.373v4.532c0 1.241-.109 2.456-.309 3.64.471.377 1.008.61 1.589.61 1.791 0 3.242-2.049 3.242-4.577s-1.452-4.578-3.242-4.578z" fill="#fff"/><path d="m40.243 41.894v-4.532c-.393-.239-.825-.373-1.28-.373-1.791 0-3.242 2.049-3.242 4.578s1.452 4.577 3.242 4.577c.58 0 1.117-.233 1.589-.61-.2-1.184-.309-2.399-.309-3.64z" fill="#fff"/><path d="m70.47 63.196c-.508 4.23-4.103 7.511-8.47 7.511s-7.963-3.281-8.47-7.511c-14.238 1.301-25.392 13.267-25.392 27.844v16.289c0 2.788 2.26 5.048 5.048 5.048h7.091c-.359-.322-.625-.739-.731-1.218 1.931-1.294 3.203-3.496 3.203-5.995v-.185c0-2.525-1.3-4.744-3.265-6.033v-14.604c0-1.562 1.51-2.68 3.004-2.224l19.895 6.07 19.895-6.07c1.494-.456 3.004.662 3.004 2.224v26.314c0 .673-.293 1.29-.77 1.721h6.3c2.788 0 5.048-2.26 5.048-5.048v-16.289c.001-14.577-11.152-26.543-25.39-27.844z" fill="#fff"/><path d="m69.835 65.558c-1.312 3.029-4.325 5.149-7.835 5.149s-6.524-2.121-7.835-5.149c-14.539.998-26.026 13.1-26.026 27.893v13.879c0 2.788 2.26 5.048 5.048 5.048h7.091c-.359-.322-.625-.739-.731-1.218 1.931-1.294 3.203-3.496 3.203-5.995v-.185c0-2.525-1.3-4.744-3.265-6.033v-14.605c0-1.562 1.51-2.68 3.004-2.224l19.895 6.07 19.895-6.07c1.494-.456 3.004.662 3.004 2.224v26.314c0 .673-.293 1.29-.77 1.721h6.3c2.788 0 5.048-2.26 5.048-5.048v-13.878c0-14.793-11.487-26.895-26.026-27.893z" fill="#0089ef"/><path d="m62 63.651c-3.031 0-5.916-.621-8.538-1.741v.259c0 4.715 3.822 8.538 8.538 8.538s8.538-3.822 8.538-8.538v-.259c-2.622 1.12-5.507 1.741-8.538 1.741z" fill="#fff"/><path d="m66.948 28.612c-8.852-2.681-13.486-7.85-13.486-7.85s-1.957 3.797-5.412 5.845-7.807 2.688-7.807 2.688v8.067 4.532c0 12.016 9.741 21.757 21.757 21.757s21.757-9.741 21.757-21.757v-4.532-6.872s-9.048.473-16.809-1.878z" fill="#fff"/><path d="m81.25 105.165v-.185c0-2.841 1.646-5.291 4.033-6.467v-14.17c0-1.562-1.51-2.68-3.004-2.224l-19.895 6.07-19.895-6.07c-1.494-.456-3.004.662-3.004 2.224v14.604c1.965 1.289 3.265 3.507 3.265 6.033v.185c0 2.499-1.272 4.701-3.203 5.995.179.805.772 1.473 1.585 1.721l19.481 5.944c1.154.352 2.387.352 3.542 0l19.481-5.944c.68-.207 1.203-.709 1.463-1.338-2.288-1.209-3.849-3.61-3.849-6.378z" fill="#fa759e"/><path d="m81.25 105.165v-.185c0-2.841 1.646-5.291 4.033-6.467v-14.17c0-1.562-1.51-2.68-3.004-2.224l-19.895 6.07v30.901c.597 0 1.194-.088 1.771-.264l19.481-5.944c.68-.207 1.203-.709 1.463-1.338-2.288-1.21-3.849-3.611-3.849-6.379z" fill="#ffd7e5"/><path d="m35.537 97.766h-7.398v9.563c0 2.788 2.26 5.048 5.048 5.048h2.35c3.984 0 7.213-3.229 7.213-7.213v-.185c0-3.983-3.23-7.213-7.213-7.213z" fill="#fff"/><path d="m88.463 97.766c-3.984 0-7.213 3.229-7.213 7.213v.185c0 3.984 3.229 7.213 7.213 7.213h2.35c2.788 0 5.048-2.26 5.048-5.048v-9.563z" fill="#fff"/><g fill="#3a2c60"><path d="m71.944 62.359c6.095-2.973 10.667-8.591 12.226-15.35.286.081.575.135.866.135 2.379 0 4.243-2.45 4.243-5.578 0-1.616-.501-3.048-1.311-4.058v-11.655c0-12.119-9.824-21.943-21.943-21.943h-8.051c-12.119 0-21.943 9.824-21.943 21.943v11.655c-.81 1.01-1.31 2.442-1.31 4.058 0 3.128 1.863 5.578 4.242 5.578.292 0 .581-.054.867-.135 1.559 6.758 6.132 12.376 12.226 15.35-14.3 1.982-24.917 14.076-24.917 28.682v6.726 9.563c0 .208.011.414.031.617.31 3.046 2.89 5.431 6.017 5.431h6.742c.277.191.574.356.911.458l19.481 5.944c.675.206 1.368.31 2.063.31s1.388-.104 2.063-.31l19.48-5.943c.336-.102.633-.268.908-.459h5.978c3.127 0 5.707-2.385 6.018-5.431.021-.203.031-.409.031-.617v-9.563-6.726c-.001-14.606-10.617-26.7-24.918-28.682zm22.917 34.407h-6.398c-.756 0-1.485.111-2.181.303v-12.727c0-1.064-.491-2.039-1.347-2.672-.854-.634-1.929-.819-2.949-.508l-.941.287c1.016-3.632 3.533-6.698 7.015-8.381 4.25 4.772 6.801 11.069 6.801 17.972zm0 10.564c0 2.232-1.816 4.048-4.049 4.048h-2.35c-3.426 0-6.213-2.787-6.213-6.213v-.186c0-3.426 2.787-6.213 6.213-6.213h6.398v8.564zm-25.425-43.923c-.592 3.569-3.701 6.3-7.436 6.3s-6.845-2.73-7.437-6.3c.084.029.171.048.256.076.5.167 1.004.322 1.519.454.051.013.103.023.155.036.532.133 1.072.244 1.618.338.061.01.121.023.182.032.581.096 1.169.167 1.763.218.041.004.082.006.122.009.602.048 1.208.079 1.822.079s1.22-.031 1.821-.079c.041-.003.083-.006.124-.01.594-.051 1.181-.122 1.761-.218.061-.01.122-.022.183-.033.547-.094 1.087-.206 1.62-.339.05-.012.101-.022.151-.035.517-.133 1.024-.289 1.527-.457.082-.024.167-.043.249-.071zm15.1-18.37c.003-.021.004-.042.007-.063.061-.449.108-.903.142-1.36.007-.088.014-.176.02-.264.031-.482.052-.967.052-1.457v-3.875c1.31-.286 2.522 1.46 2.522 3.547 0 2.204-1.336 4.071-2.743 3.472zm-36.486-18.43c3.456-2.048 5.412-5.845 5.412-5.845s4.634 5.169 13.486 7.85c6.22 1.884 13.257 1.953 15.809 1.907v5.469h-4.724l.052-.859c.017-.274-.081-.545-.27-.746-.189-.2-.453-.314-.729-.314h-12.151c-.275 0-.539.114-.729.314-.188.201-.286.472-.27.746l.052.859h-4.275l.052-.859c.017-.274-.081-.545-.27-.746-.189-.2-.453-.314-.729-.314h-12.15c-.275 0-.539.114-.729.314-.188.201-.286.472-.27.746l.052.859h-4.427v-6.881c1.487-.312 4.367-1.054 6.808-2.5zm35.139 3.903c-.008 0-.015 0-.023 0zm-7.165 5.559-.247 4.037c-.063 1.039-.929 1.853-1.969 1.853h-5.595c-1.04 0-1.905-.814-1.97-1.853l-.247-4.037zm-18.318 0-.247 4.036c-.064 1.039-.93 1.854-1.97 1.854h-5.595c-1.04 0-1.905-.813-1.969-1.853l-.247-4.037zm-18.242 8.968c-1.414.599-2.743-1.268-2.743-3.471 0-1.939 1.026-3.577 2.242-3.577.094 0 .187.011.28.031v3.874c0 .49.021.974.052 1.457.006.088.013.176.02.264.034.457.081.91.142 1.36.003.02.004.041.007.062zm1.98-.413c-.036-.275-.079-.55-.104-.824-.058-.628-.097-1.262-.097-1.906v-3.905h4.55l.137 2.238c.128 2.093 1.869 3.731 3.965 3.731h5.595c2.095 0 3.837-1.639 3.966-3.731l.137-2.238h4.519l.137 2.239c.129 2.092 1.871 3.73 3.966 3.73h5.595c2.096 0 3.837-1.639 3.965-3.731l.137-2.238h4.847v3.905c0 .643-.039 1.277-.097 1.906-.026.274-.068.549-.104.824-.978 7.391-5.839 13.575-12.479 16.391-.305.129-.62.228-.93.342-.326.12-.644.255-.978.359-3.998 1.238-8.339 1.238-12.338 0-.496-.155-.976-.344-1.455-.534-.149-.059-.303-.103-.45-.165-6.643-2.816-11.506-9-12.484-16.393zm-5.505 28.446c3.398 1.644 5.879 4.604 6.941 8.123l-.099-.03c-1.02-.313-2.095-.126-2.949.508-.855.633-1.347 1.607-1.347 2.672v12.98c-.916-.354-1.908-.556-2.947-.556h-6.398v-5.726c-.001-6.903 2.549-13.199 6.799-17.971zm-.402 38.307h-2.351c-2.232 0-4.048-1.815-4.048-4.048v-8.563h6.398c3.426 0 6.213 2.787 6.213 6.213v.186c.001 3.425-2.786 6.212-6.212 6.212zm5.886.546c-.264-.08-.482-.24-.644-.442 1.814-1.508 2.971-3.779 2.971-6.316v-.186c0-2.67-1.286-5.039-3.266-6.54v-14.097c0-.425.195-.813.536-1.064.341-.253.77-.328 1.176-.202l3.204.977c.531.16 1.088-.138 1.249-.665.16-.528-.137-1.088-.665-1.249l-.85-.259c-.922-4.387-3.729-8.176-7.732-10.326 4.052-3.886 9.343-6.513 15.307-7.257.97 4.237 4.763 7.41 9.29 7.41s8.319-3.173 9.289-7.41c5.963.743 11.254 3.37 15.306 7.255-4.08 2.191-6.916 6.084-7.782 10.579l-16.43 5.012-6.833-2.084c-.531-.163-1.088.136-1.248.664-.161.528.136 1.087.664 1.248l6.417 1.958v29.049c-.16-.032-.321-.06-.479-.108zm22.439 5.946c-.158.048-.318.076-.479.108v-29.049l19.187-5.853c.407-.122.835-.05 1.176.203.341.252.536.64.536 1.064v13.58c-2.409 1.433-4.032 4.056-4.032 7.056v.186c0 2.722 1.337 5.133 3.383 6.628-.09.054-.185.1-.29.132z"/><path d="m52.401 41.025c1.202 0 2.176-.974 2.176-2.176s-.974-2.176-2.176-2.176-2.176.974-2.176 2.176.974 2.176 2.176 2.176z"/><path d="m71.598 41.025c1.202 0 2.176-.974 2.176-2.176s-.974-2.176-2.176-2.176-2.176.974-2.176 2.176.975 2.176 2.176 2.176z"/><path d="m62 49.533c1.915 0 3.474-1.559 3.474-3.475v-1.45c0-.553-.447-1-1-1s-1 .447-1 1v1.45c0 .813-.661 1.475-1.474 1.475s-1.475-.661-1.475-1.475v-1.45c0-.553-.447-1-1-1s-1 .447-1 1v1.45c0 1.916 1.559 3.475 3.475 3.475z"/><path d="m69.937 32.262 4.26.742c.059.01.116.015.173.015.478 0 .899-.343.984-.828.095-.544-.27-1.063-.813-1.157l-4.26-.742c-.551-.09-1.062.271-1.157.813-.096.544.269 1.062.813 1.157z"/><path d="m49.63 33.019c.057 0 .114-.005.173-.015l4.261-.742c.544-.095.908-.613.813-1.157-.095-.543-.603-.903-1.157-.813l-4.261.742c-.544.095-.908.613-.813 1.157.084.485.506.828.984.828z"/><path d="m62.384 55.219c3.59 0 5.536-2.517 5.617-2.624.332-.438.246-1.06-.19-1.395-.435-.333-1.061-.252-1.4.183-.058.075-1.457 1.836-4.026 1.836-2.619 0-3.947-1.729-4.014-1.817-.323-.443-.946-.544-1.393-.221-.448.323-.549.948-.226 1.396.077.108 1.949 2.642 5.632 2.642z"/><path d="m52.281 84.061-3.145-.96c-.53-.165-1.088.137-1.248.664-.162.528.136 1.087.664 1.248l3.145.96c.098.03.195.044.292.044.429 0 .825-.277.956-.708.162-.528-.135-1.087-.664-1.248z"/></g></svg>