<svg id="Capa_1" enable-background="new 0 0 512 512" height="512" viewBox="0 0 512 512" width="512" xmlns="http://www.w3.org/2000/svg"><g><g><path d="m359.912 160.741c-8.503-5.047-16.652.54-24.024 10.55v-37.046c0-26.641-21.596-48.237-48.237-48.237h-68.842c-23.883 0-43.243 19.361-43.243 43.243v42.04c-7.372-10.01-15.521-15.597-24.024-10.55-10.517 6.243-12.045 23.092-3.413 37.634 6.806 11.466 17.895 18.068 27.437 17.29v28.303h160.322v-28.303c9.542.777 20.631-5.825 27.437-17.29 8.631-14.542 7.103-31.391-3.413-37.634z" fill="#ffcbbe"/></g><g><path d="m359.912 160.741c-8.503-5.047-16.652.54-24.024 10.55v-37.384c0-26.389-21.341-47.789-47.705-47.894 8.668 8.668 14.028 20.642 14.028 33.869v124.086h33.677v-28.303c9.542.777 20.631-5.825 27.437-17.29 8.631-14.542 7.103-31.391-3.413-37.634z" fill="#fdad9d"/></g><g><path d="m217.975 133.067h75.503c18.415 0 34.393 10.398 42.41 25.637v-34.252c0-26.454-21.445-47.899-47.899-47.899h-64.524c-26.454 0-47.899 21.445-47.899 47.899v34.252c8.016-15.239 23.994-25.637 42.409-25.637z" fill="#a95e2c"/></g><g><path d="m287.988 76.553h-13.249c16.235 7.668 27.471 24.183 27.471 43.329v14.008c14.645 2.703 26.96 12.045 33.677 24.814v-34.252c.001-26.454-21.445-47.899-47.899-47.899z" fill="#8f4e24"/></g><g><path d="m458.461 185.339h-173.174l-29.982 4.992-29.982-4.992h-174.174c-7.168 0-12.979 5.811-12.979 12.979v224.15c0 7.168 5.811 12.979 12.979 12.979h174.174l29.982-4.992 29.982 4.992h173.174c7.168 0 12.979-5.811 12.979-12.979v-224.15c0-7.168-5.811-12.979-12.979-12.979z" fill="#bed8fb"/></g><g><path d="m199.494 185.339v211.301c0 7.168-5.811 12.979-12.979 12.979h-148.345v12.849c0 7.168 5.811 12.979 12.979 12.979h174.174v-250.108z" fill="#80b4fb"/></g><g><path d="m225.323 185.339h59.964v250.108h-59.964z" fill="#465961"/></g><g><path d="m259.459 185.339v211.301c0 7.168-5.811 12.979-12.979 12.979h-21.157v25.828h59.964v-250.108z" fill="#394949"/></g><g><path d="m458.461 185.339h-12.849v211.301c0 7.168-5.811 12.979-12.979 12.979h-147.346v25.828h173.174c7.168 0 12.979-5.811 12.979-12.979v-224.15c0-7.168-5.811-12.979-12.979-12.979z" fill="#80b4fb"/></g><g><path d="m67.953 283.65h-50.747c-3.989 0-7.222-3.234-7.222-7.222v-15.882c0-3.989 3.234-7.222 7.222-7.222h50.747c8.374 0 15.163 6.789 15.163 15.163.001 8.374-6.788 15.163-15.163 15.163z" fill="#ffcbbe"/></g><g><path d="m67.953 313.976h-60.731c-3.989 0-7.222-3.234-7.222-7.222v-15.882c0-3.989 3.234-7.222 7.222-7.222h60.731c8.374 0 15.163 6.789 15.163 15.163.001 8.374-6.788 15.163-15.163 15.163z" fill="#ffcbbe"/></g><g><path d="m67.953 344.302h-60.731c-3.989 0-7.222-3.234-7.222-7.222v-15.882c0-3.989 3.234-7.222 7.222-7.222h60.731c8.374 0 15.163 6.789 15.163 15.163.001 8.375-6.788 15.163-15.163 15.163z" fill="#ffcbbe"/></g><g><path d="m57.096 374.629h-39.89c-3.989 0-7.222-3.234-7.222-7.222v-15.882c0-3.989 3.234-7.222 7.222-7.222h39.89c8.374 0 15.163 6.789 15.163 15.163 0 8.374-6.789 15.163-15.163 15.163z" fill="#ffcbbe"/></g><g><path d="m444.046 283.65h50.747c3.989 0 7.222-3.234 7.222-7.222v-15.882c0-3.989-3.234-7.222-7.222-7.222h-50.747c-8.374 0-15.163 6.789-15.163 15.163 0 8.374 6.789 15.163 15.163 15.163z" fill="#ffcbbe"/></g><g><path d="m444.046 313.976h60.731c3.989 0 7.222-3.234 7.222-7.222v-15.882c0-3.989-3.234-7.222-7.222-7.222h-60.731c-8.374 0-15.163 6.789-15.163 15.163 0 8.374 6.789 15.163 15.163 15.163z" fill="#ffcbbe"/></g><g><path d="m442.852 344.302h60.731c3.989 0 7.222-3.234 7.222-7.222v-15.882c0-3.989-3.234-7.222-7.222-7.222h-60.731c-8.374 0-15.163 6.789-15.163 15.163-.001 8.375 6.788 15.163 15.163 15.163z" fill="#ffcbbe"/></g><g><path d="m453.953 374.629h39.646c3.989 0 7.222-3.234 7.222-7.222v-15.882c0-3.989-3.234-7.222-7.222-7.222h-39.646c-8.374 0-15.163 6.789-15.163 15.163 0 8.374 6.788 15.163 15.163 15.163z" fill="#ffcbbe"/></g><g><path d="m493.599 344.302h-4.946v10.936c0 3.989-3.234 7.222-7.222 7.222h-39.646c-.936 0-1.847-.097-2.736-.259 1.29 7.066 7.465 12.427 14.904 12.427h39.646c3.989 0 7.222-3.234 7.222-7.222v-15.882c0-3.988-3.233-7.222-7.222-7.222z" fill="#fdad9d"/></g><g><path d="m494.794 253.323h-5.064v10.818c0 3.989-3.234 7.222-7.222 7.222h-50.748c-.9 0-1.776-.093-2.633-.244 1.248 7.117 7.445 12.53 14.92 12.53h50.747c3.989 0 7.222-3.234 7.222-7.222v-15.882c0-3.988-3.234-7.222-7.222-7.222z" fill="#fdad9d"/></g><g><path d="m504.778 283.65h-5.064v10.818c0 3.989-3.234 7.222-7.222 7.222h-60.732c-.9 0-1.776-.093-2.633-.244 1.248 7.117 7.445 12.53 14.92 12.53h60.731c3.989 0 7.222-3.234 7.222-7.222v-15.882c0-3.989-3.234-7.222-7.222-7.222z" fill="#fdad9d"/></g><g><path d="m503.583 313.976h-5.064v10.818c0 3.989-3.234 7.222-7.222 7.222h-60.731c-.9 0-1.776-.093-2.633-.244 1.248 7.117 7.445 12.53 14.92 12.53h60.731c3.989 0 7.222-3.234 7.222-7.222v-15.882c-.001-3.988-3.234-7.222-7.223-7.222z" fill="#fdad9d"/></g><g><path d="m69.483 253.401c.187.951.29 1.932.29 2.937 0 8.374-6.789 15.163-15.163 15.163h-44.626v4.926c0 3.989 3.234 7.222 7.222 7.222h50.747c8.374 0 15.163-6.789 15.163-15.163.001-7.857-5.977-14.318-13.633-15.085z" fill="#fdad9d"/></g><g><path d="m69.483 283.727c.187.951.29 1.932.29 2.938 0 8.374-6.789 15.163-15.163 15.163h-54.61v4.926c0 3.989 3.234 7.222 7.222 7.222h60.731c8.374 0 15.163-6.789 15.163-15.163.001-7.858-5.977-14.319-13.633-15.086z" fill="#fdad9d"/></g><g><path d="m69.483 314.053c.187.951.29 1.932.29 2.938 0 8.374-6.789 15.163-15.163 15.163h-54.61v4.926c0 3.989 3.234 7.222 7.222 7.222h60.731c8.374 0 15.163-6.789 15.163-15.163.001-7.858-5.977-14.319-13.633-15.086z" fill="#fdad9d"/></g><g><path d="m58.626 344.38c.187.951.29 1.932.29 2.937 0 8.374-6.789 15.163-15.163 15.163h-33.769v4.926c0 3.989 3.234 7.222 7.222 7.222h39.89c8.374 0 15.163-6.789 15.163-15.163 0-7.857-5.977-14.318-13.633-15.085z" fill="#fdad9d"/></g></g></svg>