<?xml version="1.0" encoding="iso-8859-1"?>
<!-- Generator: Adobe Illustrator 19.0.0, SVG Export Plug-In . SVG Version: 6.00 Build 0)  -->
<svg version="1.1" id="Capa_1" xmlns="http://www.w3.org/2000/svg" xmlns:xlink="http://www.w3.org/1999/xlink" x="0px" y="0px"
	 viewBox="0 0 480 480" style="enable-background:new 0 0 480 480;" xml:space="preserve">
<path style="fill:#F0FAFF;" d="M346.34,181.767c-46.778-21.901-79.663-67.081-84.952-119.971L256.008,8h-32l-5.38,53.796
	c-5.289,52.89-38.174,98.069-84.952,119.971c-15.739,7.369-22.072,26.509-14.723,42.258l17.115,36.675
	c15.769,33.789,23.94,70.623,23.94,107.91V376h160v-7.39c0-37.287,8.171-74.121,23.94-107.91l17.115-36.675
	C368.412,208.276,362.079,189.136,346.34,181.767z M240.008,200c-8.836,0-16-7.164-16-16c0-8.837,7.164-16,16-16s16,7.163,16,16
	C256.008,192.836,248.844,200,240.008,200z"/>
<rect x="136.008" y="376" style="fill:#3581C4;" width="208" height="104"/>
<path d="M368.313,227.406c9.336-20,1-43.719-18.586-52.883C305.063,153.609,274.266,110.109,269.352,61l-5.383-53.797
	C263.563,3.117,260.117,0,256.008,0h-32c-4.109,0-7.555,3.117-7.961,7.203L210.664,61c-4.914,49.109-35.711,92.609-80.375,113.523
	c-19.586,9.164-27.922,32.883-18.586,52.883l17.117,36.68c15.086,32.324,23.081,68.247,23.17,103.914h-15.983c-4.422,0-8,3.578-8,8
	v104h16v-64h168v-16h-168v-16h192v96h16V376c0-4.422-3.578-8-8-8h-15.983c0.09-35.667,8.084-71.59,23.17-103.914L368.313,227.406z
	 M248.008,184c0,4.414-3.586,8-8,8s-8-3.586-8-8s3.586-8,8-8S248.008,179.586,248.008,184z M312.025,368h-16.017v-9.469
	c0-55.023,16.133-108.313,46.656-154.094l-13.313-8.875c-32.281,48.422-49.344,104.773-49.344,162.969V368h-80v-9.469
	c0-58.195-17.063-114.547-49.344-162.969l-13.313,8.875c30.523,45.781,46.656,99.07,46.656,154.094V368h-16.017
	c-0.09-37.987-8.608-76.247-24.67-110.68l-17.117-36.68c-5.609-12.016-0.734-26.203,10.867-31.633
	c49.75-23.289,84.047-71.727,89.516-126.414L231.25,16h0.758v145.474c-9.292,3.313-16,12.11-16,22.526c0,13.234,10.766,24,24,24
	s24-10.766,24-24c0-10.416-6.708-19.213-16-22.526V16h0.758l4.664,46.594c5.469,54.688,39.766,103.125,89.516,126.414
	c11.602,5.43,16.477,19.617,10.867,31.633l-17.117,36.68C320.633,291.753,312.115,330.013,312.025,368z"/>
<rect x="208.008" y="232" width="64" height="16"/>
<rect x="232.008" y="264" width="16" height="16"/>
<path d="M103.492,386.164c-3.75-3.508-7.391-7.18-10.82-10.922l-11.797,10.813c3.711,4.047,7.648,8.016,11.695,11.797
	L103.492,386.164z"/>
<path d="M82.695,363.516c-3.125-3.977-6.172-8.172-9.047-12.453l-13.281,8.906c3.094,4.617,6.375,9.141,9.75,13.438L82.695,363.516z
	"/>
<path d="M65.602,337.969c-2.508-4.453-4.875-9.055-7.023-13.672l-14.5,6.75c2.32,4.992,4.875,9.961,7.586,14.781L65.602,337.969z"/>
<path d="M123.523,77.398l-9.344-12.984c-4.492,3.227-8.906,6.656-13.102,10.188l10.297,12.25
	C115.266,83.578,119.352,80.398,123.523,77.398z"/>
<path d="M149.789,61.445l-7.234-14.266c-4.93,2.492-9.813,5.211-14.516,8.07l8.313,13.672
	C140.703,66.273,145.219,63.758,149.789,61.445z"/>
<path d="M52.648,310.125c-1.797-4.805-3.422-9.711-4.828-14.594l-15.375,4.438c1.523,5.273,3.273,10.578,5.219,15.766
	L52.648,310.125z"/>
<path d="M57.5,124.414l13.516,8.57c2.719-4.297,5.656-8.555,8.734-12.672l-12.813-9.578C63.617,115.172,60.445,119.773,57.5,124.414
	z"/>
<path d="M41.922,153.734l14.672,6.391c2.039-4.68,4.289-9.344,6.68-13.852l-14.125-7.5
	C46.563,143.641,44.133,148.672,41.922,153.734z"/>
<path d="M100,97.172L88.781,85.766c-3.961,3.898-7.797,7.961-11.391,12.063l12.031,10.547C92.766,104.563,96.32,100.789,100,97.172z
	"/>
<path d="M31.039,185.102l15.484,4.063c1.289-4.93,2.789-9.875,4.469-14.719l-15.109-5.25
	C34.063,174.43,32.438,179.781,31.039,185.102z"/>
<path d="M24.008,240c0,3.672,0.086,7.32,0.266,10.938l15.984-0.781c-0.164-3.367-0.25-6.75-0.25-10.156c0-1.75,0.023-3.5,0.07-5.25
	l-16-0.406C24.031,236.219,24.008,238.109,24.008,240z"/>
<path d="M25.141,217.773l15.922,1.625c0.516-5.086,1.242-10.203,2.156-15.219l-15.75-2.859
	C26.492,206.742,25.703,212.273,25.141,217.773z"/>
<path d="M44.133,280.617c-1.023-4.961-1.875-10.063-2.523-15.164l-15.875,2.031c0.703,5.5,1.625,11.008,2.727,16.367L44.133,280.617
	z"/>
<path d="M173.227,34.516c-5.266,1.719-10.5,3.648-15.57,5.734l6.094,14.797c4.703-1.938,9.555-3.727,14.43-5.313L173.227,34.516z"/>
<path d="M385.5,102.773c3.5,3.703,6.906,7.602,10.125,11.586l12.438-10.063c-3.469-4.289-7.148-8.5-10.922-12.508L385.5,102.773z"/>
<path d="M414.766,366.977l-12.938-9.422c-2.977,4.094-6.18,8.156-9.523,12.094l12.188,10.359
	C408.094,375.773,411.555,371.383,414.766,366.977z"/>
<path d="M404.836,126.688c2.914,4.227,5.68,8.594,8.227,12.984l13.844-8.016c-2.758-4.758-5.75-9.484-8.898-14.047L404.836,126.688z
	"/>
<path d="M420.273,153.266c2.219,4.602,4.289,9.344,6.141,14.094l14.906-5.813c-2.008-5.141-4.242-10.266-6.641-15.234
	L420.273,153.266z"/>
<path d="M432.188,338.703l-14.219-7.328c-2.336,4.531-4.875,9.039-7.563,13.398l13.625,8.391
	C426.93,348.453,429.672,343.586,432.188,338.703z"/>
<path d="M455.992,242.766l-16-0.203c-0.063,5.086-0.328,10.258-0.773,15.375l15.938,1.391
	C455.641,253.828,455.922,248.25,455.992,242.766z"/>
<path d="M445.055,308.086l-15.188-5.031c-1.609,4.852-3.43,9.695-5.406,14.398l14.75,6.203
	C441.344,318.57,443.313,313.336,445.055,308.086z"/>
<path d="M385.289,80.156c-4.102-3.719-8.367-7.32-12.703-10.695l-9.828,12.625c4.008,3.125,7.969,6.461,11.766,9.914L385.289,80.156
	z"/>
<path d="M359.102,59.773c-4.633-3.063-9.406-5.969-14.195-8.633l-7.781,13.984c4.43,2.469,8.859,5.156,13.148,7.992L359.102,59.773z
	"/>
<path d="M330.102,43.633c-5.016-2.305-10.18-4.445-15.359-6.352l-5.531,15.016c4.789,1.766,9.57,3.742,14.203,5.867L330.102,43.633z
	"/>
<path d="M455.57,226.164c-0.359-5.531-0.922-11.086-1.68-16.5l-15.844,2.219c0.703,5.016,1.227,10.172,1.555,15.313L455.57,226.164z
	"/>
<path d="M453.047,275.828l-15.781-2.625c-0.844,5.039-1.891,10.102-3.125,15.055l15.531,3.859
	C451,286.766,452.141,281.289,453.047,275.828z"/>
<path d="M393.242,392.234l-11.359-11.266c-3.555,3.586-7.289,7.07-11.102,10.359l10.453,12.109
	C385.359,399.883,389.398,396.117,393.242,392.234z"/>
<path d="M431.438,181.875c1.484,4.906,2.789,9.906,3.883,14.867l15.625-3.422c-1.18-5.375-2.586-10.781-4.195-16.086
	L431.438,181.875z"/>
<g>
</g>
<g>
</g>
<g>
</g>
<g>
</g>
<g>
</g>
<g>
</g>
<g>
</g>
<g>
</g>
<g>
</g>
<g>
</g>
<g>
</g>
<g>
</g>
<g>
</g>
<g>
</g>
<g>
</g>
</svg>
